<?xml version="1.0" encoding="UTF-8" standalone="no"?>
<svg
   xmlns:dc="http://purl.org/dc/elements/1.1/"
   xmlns:cc="http://creativecommons.org/ns#"
   xmlns:rdf="http://www.w3.org/1999/02/22-rdf-syntax-ns#"
   xmlns:svg="http://www.w3.org/2000/svg"
   xmlns="http://www.w3.org/2000/svg"
   xmlns:sodipodi="http://sodipodi.sourceforge.net/DTD/sodipodi-0.dtd"
   xmlns:inkscape="http://www.inkscape.org/namespaces/inkscape"
   width="8"
   height="11"
   viewBox="0 0 8 11"
   fill="none"
   version="1.1"
   id="svg4"
   sodipodi:docname="icon.svg"
   inkscape:version="0.92.4 (5da689c313, 2019-01-14)">
  <metadata
     id="metadata10">
    <rdf:RDF>
      <cc:Work
         rdf:about="">
        <dc:format>image/svg+xml</dc:format>
        <dc:type
           rdf:resource="http://purl.org/dc/dcmitype/StillImage" />
        <dc:title></dc:title>
      </cc:Work>
    </rdf:RDF>
  </metadata>
  <defs
     id="defs8" />
  <sodipodi:namedview
     pagecolor="#ffffff"
     bordercolor="#666666"
     borderopacity="1"
     objecttolerance="10"
     gridtolerance="10"
     guidetolerance="10"
     inkscape:pageopacity="0"
     inkscape:pageshadow="2"
     inkscape:window-width="1708"
     inkscape:window-height="894"
     id="namedview6"
     showgrid="false"
     inkscape:zoom="45.254834"
     inkscape:cx="4.2898595"
     inkscape:cy="5.7393977"
     inkscape:window-x="-9"
     inkscape:window-y="-9"
     inkscape:window-maximized="1"
     inkscape:current-layer="svg4" />
  <path
     d="M 6.6975239,0.22133494 4.0000035,2.8930822 1.3024831,0.22133494 c -0.2979682,-0.29511325 -0.78105308,-0.29511325 -1.07901255,0 C -0.07449,0.51644712 -0.07449,0.99491567 0.22346947,1.2900364 L 3.237026,4.2747901 c 0.4213743,0.4173476 1.1045699,0.4173476 1.5259441,0 L 7.776532,1.2900364 c 0.2979573,-0.29512073 0.2979573,-0.77358928 0,-1.06870146 -0.2979681,-0.29511325 -0.7810508,-0.29511325 -1.0790081,0 z m 0,6.41218746 L 4.0000035,9.3052653 1.3024831,6.6335224 c -0.2979682,-0.2951208 -0.78105308,-0.2951208 -1.07901255,0 C -0.07449,6.9286324 -0.07449,7.4070988 0.22346947,7.7022196 L 3.237026,10.687005 c 0.4213743,0.417327 1.1045699,0.417327 1.5259441,0 L 7.776532,7.7022196 c 0.2979573,-0.2951208 0.2979573,-0.7735872 0,-1.0686972 -0.2979681,-0.2951208 -0.7810508,-0.2951208 -1.0790081,0 z"
     id="path2"
     style="clip-rule:evenodd;fill:#ffffff;fill-opacity:1;fill-rule:evenodd;stroke-width:1.07384026"
     inkscape:connector-curvature="0" />
</svg>
